HIERARCHY
ROOT joint_0
{
	OFFSET 0.000000 0.000000 0.000000
	CHANNELS 6 Xposition Yposition Zposition Zrotation Yrotation Xrotation 
	JOINT joint_1
	{
		OFFSET 0.000000 0.000000 0.000000
		CHANNELS 3 Zrotation Yrotation Xrotation
		JOINT joint_2
		{
			OFFSET 1.363060 -1.794630 0.839290
			CHANNELS 3 Zrotation Yrotation Xrotation
			JOINT joint_3
			{
				OFFSET 2.448110 -6.726130 0.000000
				CHANNELS 3 Zrotation Yrotation Xrotation
				JOINT joint_4
				{
					OFFSET 2.562200 -7.039590 0.000000
					CHANNELS 3 Zrotation Yrotation Xrotation
					JOINT joint_5
					{
						OFFSET 0.157640 -0.433110 2.322550
						CHANNELS 3 Zrotation Yrotation Xrotation
						End Site
						{
							OFFSET 0.000000 0.000000 0.000000
						}
					}
				}
			}
		}
	}
	JOINT joint_6
	{
		OFFSET 0.000000 0.000000 0.000000
		CHANNELS 3 Zrotation Yrotation Xrotation
		JOINT joint_7
		{
			OFFSET -1.305520 -1.794630 0.839290
			CHANNELS 3 Zrotation Yrotation Xrotation
			JOINT joint_8
			{
				OFFSET -2.542530 -6.985550 0.000000
				CHANNELS 3 Zrotation Yrotation Xrotation
				JOINT joint_9
				{
					OFFSET -2.568260 -7.056230 0.000000
					CHANNELS 3 Zrotation Yrotation Xrotation
					JOINT joint_10
					{
						OFFSET -0.164730 -0.452590 2.363150
						CHANNELS 3 Zrotation Yrotation Xrotation
						End Site
						{
							OFFSET 0.000000 0.000000 0.000000
						}
					}
				}
			}
		}
	}
	JOINT joint_11
	{
		OFFSET 0.000000 0.000000 0.000000
		CHANNELS 3 Zrotation Yrotation Xrotation
		JOINT joint_12
		{
			OFFSET 0.028270 2.035590 -0.193380
			CHANNELS 3 Zrotation Yrotation Xrotation
			JOINT joint_13
			{
				OFFSET 0.056720 2.048850 -0.042750
				CHANNELS 3 Zrotation Yrotation Xrotation
				JOINT joint_14
				{
					OFFSET 0.000000 0.000000 0.000000
					CHANNELS 3 Zrotation Yrotation Xrotation
					JOINT joint_15
					{
						OFFSET -0.054170 1.746240 0.172020
						CHANNELS 3 Zrotation Yrotation Xrotation
						JOINT joint_16
						{
							OFFSET 0.104070 1.761360 -0.123970
							CHANNELS 3 Zrotation Yrotation Xrotation
							End Site
							{
								OFFSET 0.000000 0.000000 0.000000
							}
						}
					}
				}
				JOINT joint_17
				{
					OFFSET 0.000000 0.000000 0.000000
					CHANNELS 3 Zrotation Yrotation Xrotation
					JOINT joint_18
					{
						OFFSET 3.362410 1.200890 -0.311210
						CHANNELS 3 Zrotation Yrotation Xrotation
						JOINT joint_19
						{
							OFFSET 4.983000 -0.000000 -0.000000
							CHANNELS 3 Zrotation Yrotation Xrotation
							JOINT joint_20
							{
								OFFSET 3.483560 -0.000000 -0.000000
								CHANNELS 3 Zrotation Yrotation Xrotation
								JOINT joint_21
								{
									OFFSET 0.000000 0.000000 0.000000
									CHANNELS 3 Zrotation Yrotation Xrotation
									JOINT joint_22
									{
										OFFSET 0.715260 -0.000000 -0.000000
										CHANNELS 3 Zrotation Yrotation Xrotation
										End Site
										{
											OFFSET 0.000000 0.000000 0.000000
										}
									}
								}
								JOINT joint_23
								{
									OFFSET 0.000000 0.000000 0.000000
									CHANNELS 3 Zrotation Yrotation Xrotation
									End Site
									{
										OFFSET 0.000000 0.000000 0.000000
									}
								}
							}
						}
					}
				}
				JOINT joint_24
				{
					OFFSET 0.000000 0.000000 0.000000
					CHANNELS 3 Zrotation Yrotation Xrotation
					JOINT joint_25
					{
						OFFSET -3.136600 1.374050 -0.404650
						CHANNELS 3 Zrotation Yrotation Xrotation
						JOINT joint_26
						{
							OFFSET -5.241900 -0.000000 -0.000000
							CHANNELS 3 Zrotation Yrotation Xrotation
							JOINT joint_27
							{
								OFFSET -3.444170 -0.000000 -0.000000
								CHANNELS 3 Zrotation Yrotation Xrotation
								JOINT joint_28
								{
									OFFSET 0.000000 0.000000 0.000000
									CHANNELS 3 Zrotation Yrotation Xrotation
									JOINT joint_29
									{
										OFFSET -0.622530 -0.000000 -0.000000
										CHANNELS 3 Zrotation Yrotation Xrotation
										End Site
										{
											OFFSET 0.000000 0.000000 0.000000
										}
									}
								}
								JOINT joint_30
								{
									OFFSET 0.000000 0.000000 0.000000
									CHANNELS 3 Zrotation Yrotation Xrotation
									End Site
									{
										OFFSET 0.000000 0.000000 0.000000
									}
								}
							}
						}
					}
				}
			}
		}
	}
}
MOTION
Frames: 4
Frame Time: 0.041667
9.372200 17.869300 -17.319800 -3.231600 -7.597000 -2.016800 -0.804075 0.937799 2.428957 -21.577975 -0.816190 -0.953729 0.643462 7.973822 22.864736 -0.341421 -0.313789 -17.510859 0.282776 -3.195760 -9.327504 -2.415639 -2.139949 -0.190909 27.266788 5.783716 -0.439125 -1.091486 -7.983359 24.955042 0.582175 -4.753586 -17.643555 -0.256893 -3.179200 8.593318 1.852612 -0.498501 5.733681 6.278746 -0.592923 0.278509 3.358512 -0.052655 -2.003723 -5.584132 -3.089249 -11.984677 1.785172 -3.548857 20.746399 -0.357509 -2.427267 11.823324 1.395319 -2.602801 0.348690 -78.795049 -32.641459 38.599513 101.770942 -60.184213 -70.066465 0.073022 0.390941 -11.609102 39.259761 -8.973646 -8.977546 -6.999983 0.000144 0.005228 5.567052 22.708182 -5.967047 -1.572112 2.958998 -0.988730 80.340043 7.548600 16.338451 -22.180595 31.730006 -6.706353 0.635551 0.143512 -9.855260 -20.758460 -16.110730 5.732854 7.038462 0.008465 0.013374 8.990608 -51.005954 -2.042849 
9.369200 17.865800 -17.321500 -3.209500 -7.535400 -2.086200 0.636919 0.920193 1.956067 -21.777956 -0.139259 1.197317 0.486783 7.471333 22.133030 -0.070735 -0.699562 -18.235315 0.181450 -2.483155 -7.266295 -1.150329 -1.228109 0.341470 27.186786 5.932401 0.614754 -1.255388 -7.970417 25.934433 0.183748 -5.176984 -17.875769 -0.179773 -2.646305 7.094238 1.568671 -0.377428 4.572833 5.525536 -0.718481 0.387548 2.540395 -0.116748 -1.428093 -5.615971 -2.888481 -11.415466 1.081416 -2.690287 19.200336 -0.486180 -2.382722 11.797558 0.983191 -4.538992 -0.291946 -74.300720 -36.147999 35.983351 114.835908 -60.247239 -80.392433 0.104853 0.429810 -10.654567 40.897421 -8.899190 -10.162867 -7.069058 0.000265 0.003495 7.163932 20.575001 -7.588283 -0.937721 2.531160 -0.194769 80.165901 7.221231 16.170171 -19.996294 29.205072 -4.908546 0.414561 0.129638 -8.055701 -20.359178 -15.484000 5.583377 7.027048 0.006100 0.013464 9.047500 -49.897985 -1.756982 
9.373300 17.853600 -17.331700 -2.911000 -7.352700 -2.268800 1.381385 1.135588 1.469269 -21.752886 0.451535 2.353339 0.408822 6.974797 21.145979 0.004293 -0.536774 -17.652112 0.138811 -2.153119 -6.312705 -2.165600 -2.228661 0.946401 27.926724 5.703107 1.197867 -0.720363 -7.567653 24.569168 -0.085269 -5.663429 -17.163589 -0.169071 -2.511541 6.720366 1.529800 -0.410145 4.403219 5.103059 -0.842582 0.417103 2.035605 -0.134229 -1.138260 -5.276063 -2.612617 -10.223783 0.860958 -2.401641 18.759450 -0.559690 -2.398393 11.324657 0.415912 -3.388235 -0.249334 -71.038646 -37.396091 34.828109 122.325024 -58.828248 -87.540218 -0.111596 0.346286 -10.429412 42.406522 -8.538809 -10.994134 -7.032391 0.001644 0.010576 8.161456 19.502329 -8.609876 -0.583988 2.180122 0.149748 80.814930 7.139215 14.450522 -17.593006 26.880937 -3.787490 0.258232 0.022005 -5.749945 -19.449505 -15.660498 5.681584 7.018614 0.013872 0.021845 9.662677 -50.370565 -2.034324 
9.367600 17.852600 -17.337500 -3.038200 -7.253000 -2.268600 1.464836 1.084085 1.186785 -20.609041 0.664872 3.203244 0.147095 6.844170 20.750494 -0.009615 -0.155625 -17.641610 0.126861 -2.043118 -6.055004 -1.630269 -1.574143 0.652064 27.514068 5.590398 1.305228 -0.922774 -7.571119 25.072153 0.094188 -6.471225 -17.140572 -0.183465 -2.573506 6.936523 1.006278 -0.236402 2.823951 3.550120 -0.655917 0.372057 1.590891 -0.118887 -0.900071 -4.743783 -2.200539 -8.837169 0.612342 -2.677436 18.649519 -0.625241 -2.413104 11.190728 -1.251117 -3.837924 -0.729685 -65.709529 -39.700839 31.563349 127.227532 -57.088763 -91.481586 -0.024257 0.271622 -10.308076 43.677048 -8.509544 -12.231933 -6.977039 0.002056 0.013350 8.732028 18.151464 -9.000920 -0.157061 3.863949 -0.009227 81.632759 7.578401 13.902438 -16.039613 24.650564 -3.320639 0.294471 -0.161401 -6.431578 -18.747941 -15.782363 5.687157 7.003603 0.020496 0.028860 9.576465 -50.836989 -2.335654 
